<?xml version="1.0" encoding="utf-8"?>
<!-- Generator: Adobe Illustrator 16.0.4, SVG Export Plug-In . SVG Version: 6.00 Build 0)  -->
<!DOCTYPE svg PUBLIC "-//W3C//DTD SVG 1.1//EN" "http://www.w3.org/Graphics/SVG/1.1/DTD/svg11.dtd">
<svg version="1.1" id="Layer_1" xmlns="http://www.w3.org/2000/svg" xmlns:xlink="http://www.w3.org/1999/xlink" x="0px" y="0px"
	 width="241.923px" height="54.592px" viewBox="0 0 241.923 54.592" enable-background="new 0 0 241.923 54.592"
	 xml:space="preserve">
<g fill="#333">
	<path d="M31.464,4.64c0,3.722-0.629,9.28-1.885,16.675c-0.87,4.979-2.369,10.778-4.495,17.399c-2.9,9.087-5.51,13.63-7.83,13.63
		c-2.079,0-3.722-0.315-4.93-0.942C9.907,50.097,7.636,44.079,5.51,33.35c-0.484-2.417-1.595-9.425-3.335-21.025
		c-0.243-1.498-0.701-3.407-1.377-5.727c0-0.048-0.134-0.218-0.399-0.508C0.132,5.8,0,5.535,0,5.292c0-0.58,0.435-1.124,1.305-1.631
		C2.175,3.154,2.923,2.9,3.552,2.9c0.821,0,1.57,0.326,2.248,0.979c0.676,0.652,1.015,1.39,1.015,2.211
		c0,0.968-0.061,2.381-0.181,4.241c-0.121,1.861-0.181,3.275-0.181,4.241c0,2.562,0.797,7.565,2.393,15.007
		c2.512,11.938,4.615,17.907,6.307,17.907c1.111,0,2.393-1.329,3.843-3.987c2.32-4.108,4.446-10.223,6.38-18.342
		c1.836-7.83,2.755-14.282,2.755-19.357c0-1.836-0.46-3.068-1.377-3.697C27.718,0.701,28.492,0,29.072,0
		c0.772,0,1.377,0.605,1.812,1.812C31.271,2.828,31.464,3.77,31.464,4.64z"/>
	<path d="M53.142,53.577c0,0.676-0.532,1.015-1.595,1.015c-1.16,0-1.861-0.484-2.103-1.45c-0.049-0.145-0.073-1.087-0.073-2.828
		c0-0.482-0.072-0.87-0.217-1.16c-2.708,1.982-5.631,2.972-8.772,2.972c-2.175,0-4.277-0.605-6.307-1.812
		c-2.32-1.353-3.48-3.045-3.48-5.075c0-1.981,1.377-3.915,4.132-5.8c2.513-1.74,4.833-2.61,6.96-2.61h7.177
		c0.29-0.29,0.435-0.798,0.435-1.522c0-3.238-0.266-5.679-0.797-7.323c-0.87-2.755-2.586-4.132-5.147-4.132
		c-1.837,0-3.529,1.16-5.075,3.48c-1.402,2.127-2.102,4.157-2.102,6.09c0,0.098,0,0.243,0,0.435c0,0.194,0,0.315,0,0.362
		c0,0.388-0.194,0.58-0.58,0.58c-0.484,0-1.015-0.29-1.595-0.87c-0.58-0.58-0.87-1.088-0.87-1.522c0-1.353,0.41-3.057,1.232-5.111
		c0.821-2.054,1.715-3.612,2.682-4.676c1.208-1.305,2.707-1.958,4.495-1.958c2.755,0,5.292,0.87,7.612,2.61
		c2.465,1.885,3.721,4.158,3.77,6.815L53.142,53.577z M49.299,42.049c0-1.933-1.499-2.9-4.495-2.9c-2.369,0-4.447,0.411-6.235,1.232
		c-2.272,1.063-3.407,2.659-3.407,4.785c0,1.305,0.604,2.32,1.812,3.045c1.015,0.628,2.223,0.942,3.625,0.942
		c2.078,0,4.047-0.676,5.909-2.03C48.368,45.771,49.299,44.079,49.299,42.049z"/>
	<path d="M78.733,44.297c0,2.127-1.426,4.036-4.277,5.727c-2.562,1.546-4.979,2.32-7.25,2.32c-6.478,0-9.715-4.107-9.715-12.325
		c0-3.625,0.652-7.515,1.958-11.672c1.74-5.413,3.962-8.12,6.67-8.12c2.32,0,4.857,1.173,7.612,3.517
		c2.755,2.345,4.132,4.676,4.132,6.996c0,2.997-1.208,5.607-3.625,7.83c-2.417,2.224-5.147,3.335-8.192,3.335
		c-0.29,0-0.906-0.241-1.849-0.725c-0.942-0.482-1.583-0.725-1.921-0.725c-0.628,0-0.942,0.194-0.942,0.58
		c0,5.559,1.836,8.337,5.51,8.337c1.885,0,3.625-0.627,5.22-1.885c0.966-0.725,2.03-1.86,3.19-3.408
		c0.917-1.208,1.522-1.812,1.812-1.812C78.177,42.267,78.733,42.944,78.733,44.297z M73.731,30.957c0-1.691-0.484-3.274-1.45-4.749
		c-0.967-1.474-2.248-2.211-3.842-2.211c-1.934,0-3.505,1.209-4.712,3.625c-1.015,2.03-1.522,4.132-1.522,6.308
		c0,1.402,0.446,2.573,1.341,3.516c0.894,0.942,2.041,1.414,3.443,1.414c1.981,0,3.625-0.845,4.93-2.538
		C73.126,34.776,73.731,32.987,73.731,30.957z"/>
	<path d="M103.091,24.36c0,1.499-0.157,3.733-0.471,6.706c-0.315,2.972-0.471,5.546-0.471,7.721c0,0.87,0.084,2.526,0.254,4.966
		c0.169,2.441,0.254,4.194,0.254,5.256c0,2.127-0.243,3.407-0.725,3.842c-0.29,0.192-0.701,0.29-1.232,0.29
		c-1.064,0-1.789-0.46-2.175-1.377c-0.193-0.917-0.387-1.812-0.58-2.683c-1.403,2.156-3.795,3.508-7.178,4.06
		c-1.257,0.192-2.707-0.366-4.35-1.675c-1.499-1.165-2.49-2.33-2.973-3.495c-0.677-1.602-1.015-4.686-1.015-9.25V22.92
		c-0.29-1.457,0.531-2.185,2.465-2.185c1.353,0,2.03,0.773,2.03,2.32c0,2.32-0.072,5.341-0.217,9.062
		c-0.145,4.737-0.218,7.757-0.218,9.062c-0.049,1.74,0.337,3.48,1.16,5.22c0.966,2.079,2.199,3.117,3.697,3.117
		c2.465,0,4.374-1.643,5.728-4.93c0.966-2.465,1.45-5.171,1.45-8.12V26.97c0-0.386-0.133-0.93-0.398-1.631
		c-0.266-0.7-0.399-1.269-0.399-1.704c0-0.241,0.024-0.508,0.073-0.797c0.676-0.628,1.353-0.966,2.03-1.015
		C102.004,21.629,103.091,22.475,103.091,24.36z"/>
	<path d="M141.37,51.979c-1.015,0.63-1.789,0.945-2.32,0.945c-0.339,0-0.823-0.17-1.45-0.509c0-0.775,0-2.082,0-3.924
		c0-1.696,0-3.004,0-3.924c0-14.921-1.527-22.383-4.579-22.383c-1.812,0-3.387,2.32-4.723,6.96
		c-1.049,3.722-1.573,6.864-1.573,9.425v7.25c0,0.387,0.108,0.931,0.326,1.631c0.217,0.701,0.326,1.221,0.326,1.559
		c0,0.387-0.266,0.773-0.797,1.16c-0.533,0.388-0.991,0.58-1.377,0.58c-0.435,0-0.919-0.301-1.45-0.906
		c-0.532-0.604-0.797-1.124-0.797-1.559V33.712c0-1.546-0.266-3.504-0.798-5.873c-0.677-2.996-1.499-4.495-2.465-4.495
		c-0.532,0-1.33,0.677-2.392,2.03c-3.625,4.64-5.438,10.344-5.438,17.11c0,0.822,0.096,2.042,0.29,3.661
		c0.192,1.62,0.29,2.816,0.29,3.589c0,1.45-0.605,2.175-1.812,2.175c-0.58,0-1.088-0.243-1.522-0.725
		c-0.194-0.241-0.412-1.329-0.653-3.262c-0.242-1.74-0.362-2.924-0.362-3.553V27.26c0-4.93,0.58-7.395,1.74-7.395
		c0.483,0,0.979,0.23,1.486,0.689c0.507,0.459,0.761,0.931,0.761,1.414c0,1.015-0.145,2.345-0.435,3.987
		c-0.29,2.127-0.46,3.456-0.507,3.987l0.362,0.363c0.918-2.078,1.836-4.156,2.755-6.235c1.305-2.658,2.852-3.988,4.64-3.988
		c2.513,0,4.688,2.708,6.525,8.12c0.482-0.58,1.087-1.788,1.812-3.625c0.725-1.836,1.377-3.141,1.958-3.915
		c0.917-1.16,2.054-1.74,3.407-1.74c1.305,0,2.755,0.872,4.35,2.616c2.947,3.149,4.422,8.84,4.422,17.073V51.979z"/>
	<path d="M151.375,49.952c0,0.677-0.46,1.257-1.377,1.74c-0.725,0.387-1.475,0.58-2.248,0.58c-0.822,0-1.547-0.29-2.175-0.87
		c-0.629-0.58-0.942-1.256-0.942-2.03c0-1.643,0.845-2.465,2.537-2.465c0.966,0,1.909,0.279,2.828,0.833
		C150.915,48.297,151.375,49.034,151.375,49.952z"/>
	<path d="M177.401,43.95c0,1.168-0.991,2.737-2.973,4.707c-1.982,1.97-3.601,3.125-4.857,3.465
		c-1.692,0.535-3.094,0.802-4.205,0.802c-3.529,0-6.235-1.284-8.12-3.851c-1.74-2.277-2.61-5.231-2.61-8.864
		c0-3.729,0.797-7.896,2.393-12.497c1.981-5.715,4.446-8.573,7.395-8.573c1.401,0,3.263,0.689,5.583,2.066s3.625,2.695,3.915,3.951
		c0.337,1.499,0.507,2.972,0.507,4.422c0,5.317-0.797,7.975-2.393,7.975c-0.387,0-0.846-0.145-1.377-0.435
		c-0.532-0.29-0.797-0.628-0.797-1.015c0-0.193,0.096-0.446,0.29-0.761c0.192-0.314,0.314-0.519,0.362-0.616
		c0.193-0.627,0.29-2.078,0.29-4.35c0-5.365-1.208-8.047-3.625-8.047c-2.658,0-4.833,2.448-6.524,7.342
		c-1.258,3.78-1.885,7.365-1.885,10.757c0,2.617,0.41,4.797,1.232,6.542c1.111,2.278,2.828,3.417,5.147,3.417
		c1.401,0,3.045-0.731,4.93-2.193c1.691-1.315,2.947-2.704,3.77-4.166c0.193-0.487,0.483-1.169,0.87-2.046
		c0.241-0.341,0.58-0.512,1.015-0.512c0.29,0,0.64,0.329,1.051,0.986C177.195,43.112,177.401,43.61,177.401,43.95z"/>
	<path d="M204.008,37.192c0,4.157-0.919,7.782-2.755,10.875c-2.176,3.721-5.196,5.582-9.062,5.582c-3.915,0-6.84-1.522-8.772-4.567
		c-1.595-2.512-2.393-5.847-2.393-10.005c0-4.107,0.917-8.144,2.755-12.107c2.32-4.881,5.268-7.322,8.845-7.322
		c0.918,0,2.223,0.532,3.915,1.595C201.518,24.336,204.008,29.652,204.008,37.192z M200.527,37.12c0-3.093-0.411-5.873-1.232-8.337
		c-1.209-3.431-3.069-5.147-5.582-5.147c-2.9,0-5.172,1.91-6.815,5.727c-1.258,2.949-1.885,6.115-1.885,9.498
		c0,3.045,0.435,5.607,1.305,7.685c1.256,2.852,3.213,4.277,5.873,4.277c2.899,0,5.099-1.643,6.597-4.93
		C199.947,43.331,200.527,40.407,200.527,37.12z"/>
	<path d="M241.923,51.979c-1.015,0.63-1.788,0.945-2.319,0.945c-0.339,0-0.822-0.17-1.45-0.509c0-0.775,0-2.082,0-3.924
		c0-1.696,0-3.004,0-3.924c0-14.921-1.527-22.383-4.579-22.383c-1.812,0-3.387,2.32-4.723,6.96
		c-1.049,3.722-1.573,6.864-1.573,9.425v7.25c0,0.387,0.109,0.931,0.326,1.631c0.218,0.701,0.326,1.221,0.326,1.559
		c0,0.387-0.266,0.773-0.797,1.16c-0.532,0.388-0.991,0.58-1.378,0.58c-0.435,0-0.918-0.301-1.45-0.906
		c-0.532-0.604-0.797-1.124-0.797-1.559V33.712c0-1.546-0.267-3.504-0.798-5.873c-0.677-2.996-1.498-4.495-2.465-4.495
		c-0.532,0-1.33,0.677-2.393,2.03c-3.625,4.64-5.438,10.344-5.438,17.11c0,0.822,0.097,2.042,0.29,3.661
		c0.193,1.62,0.29,2.816,0.29,3.589c0,1.45-0.604,2.175-1.812,2.175c-0.58,0-1.087-0.243-1.522-0.725
		c-0.193-0.241-0.411-1.329-0.652-3.262c-0.242-1.74-0.362-2.924-0.362-3.553V27.26c0-4.93,0.58-7.395,1.74-7.395
		c0.482,0,0.979,0.23,1.486,0.689c0.507,0.459,0.761,0.931,0.761,1.414c0,1.015-0.145,2.345-0.435,3.987
		c-0.29,2.127-0.46,3.456-0.508,3.987l0.362,0.363c0.918-2.078,1.836-4.156,2.755-6.235c1.306-2.658,2.852-3.988,4.641-3.988
		c2.512,0,4.687,2.708,6.524,8.12c0.482-0.58,1.088-1.788,1.812-3.625c0.725-1.836,1.377-3.141,1.957-3.915
		c0.918-1.16,2.054-1.74,3.408-1.74c1.305,0,2.755,0.872,4.35,2.616c2.947,3.149,4.422,8.84,4.422,17.073V51.979z"/>
</g>
</svg>
