<svg version="1.1" class="ico-calendar" xmlns="http://www.w3.org/2000/svg" xmlns:xlink="http://www.w3.org/1999/xlink" x="0px" y="0px"
	 viewBox="0 0 29 34" style="enable-background:new 0 0 29 34;" xml:space="preserve">
<path class="st0" d="M26.5,5H26V2.5C26,1.1,24.9,0,23.5,0S21,1.1,21,2.5V5H8V2.5C8,1.1,6.9,0,5.5,0S3,1.1,3,2.5V5H2.5
	C1.1,5,0,6.1,0,7.5v24C0,32.9,1.1,34,2.5,34h24c1.4,0,2.5-1.1,2.5-2.5v-24C29,6.1,27.9,5,26.5,5z M13,29c0,1.1-0.9,2-1.9,2H4.9
	c-1,0-1.9-0.9-1.9-1.9V23c0-1.1,0.9-2,1.9-2H11c1.1,0,2,1,2,2V29L13,29z M13,16.1c0,1.1-0.9,1.9-1.9,1.9H4.9c-1,0-1.9-0.9-1.9-1.9
	V9.9C3,8.9,3.9,8,4.9,8H11c1.1,0,2,0.9,2,1.9V16.1z M26,29.1c0,1.1-0.9,1.9-1.9,1.9H18c-1.1,0-2-1-2-2v-6c0-1.1,1-2,2-2h6
	c1.1,0,2,1,2,2V29.1z M26,16.1c0,1.1-0.9,1.9-1.9,1.9H18c-1.1,0-1.9-0.9-1.9-1.9V9.9C16,8.9,16.9,8,17.9,8H24c1.1,0,2,0.9,2,1.9
	V16.1z"/>
</svg>
