<?xml version="1.0" encoding="UTF-8" standalone="no"?>
<svg width="137px" height="24px" viewBox="0 0 137 24" version="1.1" xmlns="http://www.w3.org/2000/svg" xmlns:xlink="http://www.w3.org/1999/xlink">
    <!-- Generator: Sketch 42 (36781) - http://www.bohemiancoding.com/sketch -->
    <title>vaeum@2x</title>
    <desc>Created with Sketch.</desc>
    <defs></defs>
    <g id="Page-1" stroke="none" stroke-width="1" fill="none" fill-rule="evenodd">
        <g id="Artboard" transform="translate(-1.000000, -7.000000)" fill="#FFFFFF">
            <g id="vaeum" transform="translate(1.000000, 7.000000)">
                <path d="M7.148,23 L6.672,2.952 C4.236,3.008 3.34,4.408 3.34,5.696 C3.34,6.312 3.564,6.928 3.9,7.32 C3.48,7.516 3.088,7.6 2.696,7.6 C1.268,7.6 0.428,6.34 0.428,4.94 C0.428,3.176 1.772,1.16 5.076,1.16 C7.4,1.16 9.78,2.392 10.984,1.72 C11.264,1.888 11.376,2.168 11.376,2.448 C11.376,2.98 11.04,3.54 10.396,3.54 L10.256,3.54 L10.48,19.416 L13.14,14.376 C14.904,11.044 17.172,5.164 15.52,1.72 C16.052,1.216 16.752,0.88 17.648,0.88 C19.076,0.88 19.496,1.916 19.496,2.56 C19.496,6.676 16.388,12.08 14.288,15.832 L11.012,21.628 C10.34,22.832 9.724,23.364 8.688,23.364 C8.184,23.364 7.484,23.224 7.148,23 Z M25.108,8.748 C26.368,8.748 27.292,9.056 27.992,9.672 C28.468,9.112 29.196,8.86 29.896,8.86 C30.4,8.86 30.876,9 31.212,9.224 L29.252,18.492 C28.916,20.06 29.364,20.564 30.092,20.564 C31.128,20.564 32.332,19.864 33.032,19.164 C33.34,19.304 33.508,19.556 33.508,19.836 C33.508,20.032 33.424,20.256 33.256,20.452 C31.94,21.936 29.924,23.224 28.412,23.224 C27.096,23.224 25.78,22.608 25.808,20.396 C24.632,22.048 23.148,23.224 21.552,23.224 C18.64,23.224 18.052,20.312 18.052,18.52 C18.052,13.62 21.216,8.748 25.108,8.748 Z M25.864,18.576 L27.432,11.072 C26.956,10.904 26.536,10.848 26.116,10.848 C22.728,10.848 21.524,15.272 21.524,18.324 C21.524,19.724 22.168,20.34 23.036,20.34 C23.932,20.34 25.108,19.612 25.864,18.576 Z M43.544,11.436 C43.544,13.816 42.284,15.72 36.88,18.716 C37.16,20.228 38.196,20.788 39.484,20.788 C41.5,20.788 44.076,19.36 45.28,17.764 C46.008,17.624 46.288,18.212 45.98,18.716 C44.048,21.544 40.8,23.224 38.084,23.224 C35.452,23.224 33.324,21.656 33.324,18.212 C33.324,14.572 35.732,8.748 40.352,8.748 C42.9,8.748 43.544,10.176 43.544,11.436 Z M40.548,10.932 C37.776,10.932 36.88,15.552 36.796,17.512 C39.512,15.804 41.36,13.844 41.36,12.024 C41.36,11.38 41.024,10.932 40.548,10.932 Z M45.7680001,17.848 L47.0840001,12.108 C47.1960001,11.66 47.0560001,11.408 46.8040001,11.408 C46.6640001,11.408 46.4960001,11.52 46.2440001,11.744 C45.8800001,11.52 45.6840001,10.652 46.2440001,10.204 C47.1960001,9.448 48.2040001,8.86 49.3800001,8.86 C50.3880001,8.86 50.9760001,9.336 50.7240001,10.4 L49.0160001,18.352 C48.7640001,19.5 49.1280001,20.004 49.9680001,20.004 C50.9480001,20.004 51.7880001,19.444 52.5440001,18.548 L54.2240001,10.624 C54.5040001,9.336 55.5680001,8.86 56.5760001,8.86 C57.0800001,8.86 57.5560001,9 57.8920001,9.224 L55.9320001,18.492 C55.5960001,20.06 56.0440001,20.564 56.7720001,20.564 C57.8080001,20.564 59.0120001,19.864 59.7120001,19.164 C60.0200001,19.304 60.1880001,19.556 60.1880001,19.836 C60.1880001,20.032 60.1040001,20.256 59.9360001,20.452 C58.6200001,21.936 56.6040001,23.224 55.0920001,23.224 C53.7200001,23.224 52.3480001,22.524 52.4880001,20.06 C51.3680001,21.88 49.9960001,23.224 48.4000001,23.224 C45.2920001,23.224 45.2920001,19.948 45.7680001,17.848 Z M77.9520001,12.976 L76.7760001,18.492 C76.4680001,19.92 76.8320001,20.536 77.3920001,20.536 C77.8960001,20.536 78.5400001,20.2 78.9600001,19.192 C79.4920001,19.192 79.8000001,19.472 79.8000001,19.948 C79.8000001,21.908 77.5040001,23.224 75.9360001,23.224 C74.5360001,23.224 72.5480001,22.524 73.2480001,19.248 L74.4240001,13.676 C74.6480001,12.78 74.6760001,12.024 73.7520001,12.024 C72.8000001,12.024 72.0440001,12.528 71.3160001,13.312 L69.5800001,21.46 C69.3000001,22.748 68.2360001,23.224 67.2280001,23.224 C66.7240001,23.224 66.2480001,23.084 65.9120001,22.86 L67.8720001,13.676 C68.0680001,12.78 68.1240001,12.024 67.2000001,12.024 C66.1920001,12.024 65.3800001,12.584 64.6240001,13.48 L62.9160001,21.46 C62.6360001,22.748 61.5720001,23.224 60.5640001,23.224 C60.0600001,23.224 59.5840001,23.084 59.2480001,22.86 L61.5440001,12.108 C61.6560001,11.66 61.5160001,11.408 61.2640001,11.408 C61.1240001,11.408 60.9560001,11.52 60.7040001,11.744 C60.3400001,11.52 60.1440001,10.652 60.7040001,10.204 C61.6560001,9.448 62.6640001,8.86 63.8400001,8.86 C64.8480001,8.86 65.4360001,9.336 65.1840001,10.4 L64.9040001,11.66 C66.0520001,10.008 67.4520001,8.86 69.0480001,8.86 C70.1960001,8.86 71.4840001,9.756 71.4000001,11.744 C72.5760001,10.064 73.9760001,8.86 75.6000001,8.86 C76.8600001,8.86 78.6800001,9.7 77.9520001,12.976 Z M82.0240001,21.712 C81.9400001,22.804 82.7800001,23.672 83.8720001,23.672 C84.9640001,23.672 85.8600001,22.804 85.9440001,21.712 C86.0000001,20.62 85.1600001,19.752 84.0680001,19.752 C82.9760001,19.752 82.0800001,20.62 82.0240001,21.712 Z M101.72,18.716 C99.7880001,21.544 96.5400001,23.224 93.8240001,23.224 C91.1920001,23.224 89.0640001,21.656 89.0640001,18.212 C89.0640001,13.9 92.0040001,8.748 96.2040001,8.748 C98.4720001,8.748 99.5920001,9.644 99.5920001,11.464 C99.5920001,13.032 98.6680001,13.76 97.6320001,13.76 C97.2680001,13.76 96.8200001,13.648 96.5120001,13.368 C96.8200001,12.696 96.9600001,11.94 96.9600001,11.548 C96.9600001,11.016 96.6240001,10.736 95.9240001,10.736 C94.3560001,10.736 92.5360001,13.732 92.5360001,17.764 C92.5360001,19.976 93.7120001,20.788 95.2240001,20.788 C97.2400001,20.788 99.8160001,19.36 101.02,17.764 C101.748,17.624 102.028,18.212 101.72,18.716 Z M115.62,10.204 C116.152,10.652 116.012,11.408 115.62,11.744 C114.892,12.36 113.8,13.676 112.652,14.404 C112.68,14.516 112.68,14.628 112.68,14.712 C112.68,18.996 108.732,23.224 105.372,23.224 C102.488,23.224 101.256,20.9 101.256,18.268 C101.256,14.04 104.196,8.748 108.424,8.748 C109.824,8.748 110.944,9.14 111.784,10.4 C111.728,11.044 111.252,11.352 110.832,11.184 C110.3,10.988 109.712,10.876 109.04,10.876 C106.492,10.876 104.84,14.628 104.84,17.372 C104.84,19.836 105.68,20.788 106.66,20.788 C108.088,20.788 109.88,18.716 109.88,16.196 C109.88,15.832 109.824,15.44 109.74,15.048 C109.236,15.02 108.76,14.908 108.452,14.712 C107.864,13.172 108.48,11.772 110.076,11.772 C111.028,11.772 111.84,12.248 112.288,13.06 C113.408,12.36 114.444,11.156 115.62,10.204 Z M120.7,10.4 L120.42,11.66 C121.568,10.008 122.968,8.86 124.564,8.86 C125.712,8.86 127,9.756 126.916,11.744 C128.092,10.064 129.492,8.86 131.116,8.86 C132.376,8.86 134.196,9.7 133.468,12.976 L132.096,19.416 C131.928,20.228 132.292,20.564 132.852,20.564 C133.888,20.564 135.092,19.864 135.792,19.164 C136.1,19.304 136.268,19.556 136.268,19.836 C136.268,20.032 136.184,20.256 136.016,20.452 C134.7,21.936 132.824,23.224 130.948,23.224 C129.548,23.224 128.064,22.524 128.764,19.248 L129.94,13.676 C130.164,12.78 130.192,12.024 129.268,12.024 C128.316,12.024 127.56,12.528 126.832,13.312 L125.096,21.46 C124.816,22.748 123.752,23.224 122.744,23.224 C122.24,23.224 121.764,23.084 121.428,22.86 L123.388,13.676 C123.584,12.78 123.64,12.024 122.716,12.024 C121.708,12.024 120.896,12.584 120.14,13.48 L118.432,21.46 C118.152,22.748 117.088,23.224 116.08,23.224 C115.576,23.224 115.1,23.084 114.764,22.86 L117.06,12.108 C117.172,11.66 117.032,11.408 116.78,11.408 C116.64,11.408 116.472,11.52 116.22,11.744 C115.856,11.52 115.66,10.652 116.22,10.204 C117.172,9.448 118.18,8.86 119.356,8.86 C120.364,8.86 120.952,9.336 120.7,10.4 Z" id="Vaeum.com"></path>
            </g>
        </g>
    </g>
</svg>